<svg xmlns="http://www.w3.org/2000/svg" viewBox="0 0 32 32">
  <rect width="32" height="32" rx="7" fill="#2A2725"/>
  <g transform="translate(16, 16.2)" fill="none" stroke="#E08A3A">
    <!-- Ears -->
    <path d="M-4.4 -3.4 L-6.2 -10.3 L-1.9 -5.3" stroke-width="0.62" stroke-linejoin="round" stroke-linecap="round"/>
    <path d="M4.4 -3.4 L6.2 -10.3 L1.9 -5.3" stroke-width="0.62" stroke-linejoin="round" stroke-linecap="round"/>
    <!-- Head -->
    <path d="M-5.3 -1.9 C-5.6 0.9, -5 3.7, -3.1 5.3 C-1.6 6.5, 1.6 6.5, 3.1 5.3 C5 3.7, 5.6 0.9, 5.3 -1.9" stroke-width="0.62" stroke-linecap="round"/>
    <!-- Eyes -->
    <path d="M-3.1 0 Q-2.4 -0.9 -1.6 0" stroke-width="0.44" stroke-linecap="round"/>
    <path d="M3.1 0 Q2.4 -0.9 1.6 0" stroke-width="0.44" stroke-linecap="round"/>
    <!-- Nose -->
    <path d="M-0.75 1.9 L0 1.1 L0.75 1.9 Q0.75 2.6 0 2.6 Q-0.75 2.6 -0.75 1.9 Z" fill="#E08A3A" stroke="none"/>
    <!-- Mouth -->
    <path d="M0 2.6 L0 3.2" stroke-width="0.32" stroke-linecap="round"/>
    <path d="M0 3.2 Q-0.9 3.8 -1.4 3.5" stroke-width="0.32" stroke-linecap="round"/>
    <path d="M0 3.2 Q0.9 3.8 1.4 3.5" stroke-width="0.32" stroke-linecap="round"/>
    <!-- Whiskers -->
    <line x1="-1.4" y1="2.2" x2="-5" y2="1.2" stroke-width="0.25" opacity="0.4"/>
    <line x1="-1.4" y1="2.6" x2="-5.1" y2="2.6" stroke-width="0.25" opacity="0.4"/>
    <line x1="-1.2" y1="3.1" x2="-4.9" y2="3.7" stroke-width="0.25" opacity="0.4"/>
    <line x1="1.4" y1="2.2" x2="5" y2="1.2" stroke-width="0.25" opacity="0.4"/>
    <line x1="1.4" y1="2.6" x2="5.1" y2="2.6" stroke-width="0.25" opacity="0.4"/>
    <line x1="1.2" y1="3.1" x2="4.9" y2="3.7" stroke-width="0.25" opacity="0.4"/>
  </g>
</svg>
